<?xml version="1.0" standalone="no"?><svg xmlns:xlink="http://www.w3.org/1999/xlink" xmlns="http://www.w3.org/2000/svg" viewBox="0 0 1000 777.7877912785891" preserveAspectRatio="xMaxYMax slice"><g transform="scale(1.9591632022130707)"><rect x="0" y="0" width="510.42857142857144" height="397" fill="#ffffff"/><circle cx="28.36" cy="28.36" r="5.67" fill="#071241"/><circle cx="85.07000000000001" cy="28.36" r="5.67" fill="#FF3565"/><circle cx="141.78" cy="28.36" r="5.67" fill="#FF3565"/><circle cx="198.5" cy="28.36" r="5.67" fill="#071241"/><circle cx="255.20999999999998" cy="28.36" r="5.67" fill="#071241"/><circle cx="311.93" cy="28.36" r="5.67" fill="#FF3565"/><circle cx="368.64000000000004" cy="28.36" r="5.67" fill="#FF3565"/><circle cx="425.36" cy="28.36" r="5.67" fill="#071241"/><circle cx="482.07" cy="28.36" r="5.67" fill="#FF3565"/><circle cx="28.36" cy="85.07000000000001" r="5.67" fill="#071241"/><circle cx="85.075" cy="85.075" r="7.745" fill="#FF3565"/><circle cx="141.79" cy="85.07" r="9.82" fill="#071241"/><circle cx="198.50500000000002" cy="85.075" r="11.895" fill="#FF3565"/><circle cx="255.20999999999998" cy="85.07000000000001" r="13.45" fill="#FF3565"/><circle cx="311.93" cy="85.07000000000001" r="13.45" fill="#FF3565"/><circle cx="368.645" cy="85.075" r="11.895" fill="#FF3565"/><circle cx="425.36" cy="85.07" r="9.82" fill="#FF3565"/><circle cx="482.075" cy="85.075" r="7.745" fill="#071241"/><circle cx="28.36" cy="141.78" r="5.67" fill="#FF3565"/><circle cx="85.07" cy="141.79" r="9.82" fill="#FF3565"/><circle cx="141.79" cy="141.79" r="13.97" fill="#071241"/><circle cx="198.495" cy="141.785" r="18.115" fill="#FF3565"/><circle cx="255.215" cy="141.785" r="21.225" fill="#071241"/><circle cx="311.925" cy="141.785" r="21.225" fill="#FF3565"/><circle cx="368.645" cy="141.785" r="18.115" fill="#071241"/><circle cx="425.36" cy="141.79" r="13.97" fill="#071241"/><circle cx="482.07" cy="141.79" r="9.82" fill="#071241"/><circle cx="28.36" cy="198.5" r="5.67" fill="#071241"/><circle cx="85.07" cy="198.5" r="11.72" fill="#FF3565"/><circle cx="141.79" cy="198.5" r="17.77" fill="#FF3565"/><circle cx="198.5" cy="198.5" r="23.82" fill="#FF3565"/><circle cx="255.215" cy="198.49499999999998" r="28.355" fill="#071241"/><circle cx="311.925" cy="198.49499999999998" r="28.355" fill="#071241"/><circle cx="368.64" cy="198.5" r="23.82" fill="#071241"/><circle cx="425.35999999999996" cy="198.5" r="17.77" fill="#FF3565"/><circle cx="482.07000000000005" cy="198.5" r="11.72" fill="#FF3565"/><circle cx="28.36" cy="255.20999999999998" r="5.67" fill="#FF3565"/><circle cx="85.07" cy="255.21" r="11.72" fill="#071241"/><circle cx="141.79" cy="255.21" r="17.77" fill="#FF3565"/><circle cx="198.5" cy="255.20999999999998" r="23.82" fill="#FF3565"/><circle cx="255.215" cy="255.215" r="28.355" fill="#FF3565"/><circle cx="311.925" cy="255.215" r="28.355" fill="#FF3565"/><circle cx="368.64" cy="255.20999999999998" r="23.82" fill="#FF3565"/><circle cx="425.35999999999996" cy="255.21" r="17.77" fill="#FF3565"/><circle cx="482.07000000000005" cy="255.21" r="11.72" fill="#FF3565"/><circle cx="28.36" cy="311.93" r="5.67" fill="#FF3565"/><circle cx="85.07" cy="311.93" r="9.82" fill="#071241"/><circle cx="141.79" cy="311.93" r="13.97" fill="#FF3565"/><circle cx="198.495" cy="311.925" r="18.115" fill="#FF3565"/><circle cx="255.215" cy="311.925" r="21.225" fill="#071241"/><circle cx="311.925" cy="311.925" r="21.225" fill="#FF3565"/><circle cx="368.645" cy="311.925" r="18.115" fill="#FF3565"/><circle cx="425.36" cy="311.93" r="13.97" fill="#071241"/><circle cx="482.07" cy="311.93" r="9.82" fill="#071241"/><circle cx="28.36" cy="368.64000000000004" r="5.67" fill="#071241"/><circle cx="85.075" cy="368.645" r="7.745" fill="#071241"/><circle cx="141.79" cy="368.64" r="9.82" fill="#FF3565"/><circle cx="198.50500000000002" cy="368.645" r="11.895" fill="#FF3565"/><circle cx="255.20999999999998" cy="368.64" r="13.45" fill="#071241"/><circle cx="311.93" cy="368.64" r="13.45" fill="#FF3565"/><circle cx="368.645" cy="368.645" r="11.895" fill="#071241"/><circle cx="425.36" cy="368.64" r="9.82" fill="#071241"/><circle cx="482.075" cy="368.645" r="7.745" fill="#071241"/></g></svg>